<?xml version="1.0" encoding="UTF-8"?>
<svg xmlns="http://www.w3.org/2000/svg" viewBox="0 0 600.42 659.29">
  <defs>
    <style>
      .cls-1 {
        stroke-linejoin: round;
      }

      .cls-1, .cls-2, .cls-3, .cls-4 {
        fill: none;
      }

      .cls-1, .cls-3 {
        stroke-linecap: round;
      }

      .cls-1, .cls-3, .cls-4 {
        stroke-width: 10px;
      }

      .cls-1, .cls-3, .cls-4, .cls-5 {
        stroke: #fff;
      }

      .cls-2 {
        stroke-width: 0px;
      }

      .cls-3, .cls-4, .cls-5 {
        stroke-miterlimit: 10;
      }

      .cls-5 {
        fill: #fff;
      }
    </style>
  </defs>
  <g id="bgc">
    <path class="cls-2" d="m524.82,154.15c-15.66-16.29-100.03-100.89-227.15-98.08-126.8,2.8-250.97,91.59-284.18,225.89-36.09,145.91,45.73,302.91,189.78,354.68,152.12,54.68,318.24-27.92,375.63-166.44,42.37-102.28,21.04-224.34-54.08-316.04Z"/>
  </g>
  <g id="face">
    <path class="cls-1" d="m528.42,147.39c-22.46-21.99-78.74-71.01-165.45-86.81-18.53-3.38-156.59-26.1-263.49,73.53C14.74,213.09-15.35,336.29,18.81,444.58c42.04,133.26,162.24,183.22,176.68,188.94,117.62,46.56,248.29,10.73,326.81-66.38,35.01-34.38,60.4-88.36,60.4-88.36,2.65-5.64,5.08-13.49,5.4-17.44l-2.54-2.57-95.81-97.12c-4.38-4.44-11.31-4.22-15.4.49l-57.64,66.39c-4.09,4.71-11.12,5.04-15.63.73l-69.39-66.28c-4.51-4.31-11.75-4.17-16.1.3l-73.46,75.68"/>
  </g>
  <g id="eyes">
    <ellipse class="cls-4" cx="273.42" cy="225.67" rx="62.6" ry="111.99"/>
    <ellipse class="cls-4" cx="475.81" cy="239.87" rx="45.77" ry="81.89"/>
    <path class="cls-3" d="m244.07,23.62s23.38-27.92,58.71-6.62"/>
    <path class="cls-3" d="m449,11.27s33.7-21.96,53.62,16.34"/>
  </g>
  <g id="eyes_color" data-name="eyes color">
    <path class="cls-5" d="m211.72,199.63s6.72-13.46,19.62-12.44,24.3,15.74,26.54,33.53c2.23,17.79-.25,43.32-6.45,55.83-6.2,12.51-21.67,14.93-28.32,10.27s-15.06-50.51-11.38-87.2Z"/>
    <path class="cls-5" d="m430.17,222.42s1.09-10.06,14.39-9.91c13.69,3.1,16.16,12.39,19.06,25.49s3.19,30.66-2.76,40.24-13.24,12.68-20.23,9.54c-4.61-6.88-11.65-29.2-10.46-65.36Z"/>
  </g>
</svg>