<?xml version="1.0" encoding="UTF-8"?>
<svg xmlns="http://www.w3.org/2000/svg" viewBox="0 0 601.02 714.91">
  <defs>
    <style>
      .cls-1 {
        stroke-linejoin: round;
        stroke-width: 30px;
      }

      .cls-1, .cls-2, .cls-3, .cls-4, .cls-5 {
        stroke: #23192a;
      }

      .cls-1, .cls-3 {
        stroke-linecap: round;
      }

      .cls-1, .cls-3, .cls-5 {
        fill: none;
      }

      .cls-2 {
        stroke-width: 10px;
      }

      .cls-2, .cls-3, .cls-4, .cls-5 {
        stroke-miterlimit: 10;
      }

      .cls-2, .cls-4 {
        fill: #23192a;
      }

      .cls-3, .cls-5 {
        stroke-width: 20px;
      }

      .cls-4 {
        stroke-width: 15px;
      }
    </style>
  </defs>
  <g id="face">
    <path class="cls-1" d="m538.42,193.01c-22.46-21.99-78.74-71.01-165.45-86.81-18.53-3.38-156.59-26.1-263.49,73.53C24.74,258.71-5.35,381.91,28.81,490.2c42.04,133.26,162.24,183.22,176.68,188.94,117.62,46.56,248.29,10.73,326.81-66.38,35.01-34.38,48.68-66.28,48.68-66.28,2.46-5.73,4.73-13.65,5.04-17.6l-2.54-2.57-95.81-97.12c-4.38-4.44-11.31-4.22-15.4.49l-57.64,66.39c-4.09,4.71-11.12,5.04-15.63.73l-69.39-66.28c-4.51-4.31-11.75-4.17-16.1.3l-73.46,75.68"/>
  </g>
  <g id="eyes">
    <ellipse class="cls-5" cx="271.04" cy="287.69" rx="52.35" ry="93.65"/>
    <ellipse class="cls-5" cx="484.31" cy="298.07" rx="38.08" ry="68.12"/>
    <path class="cls-3" d="m482.03,82.11s36.57-16.75,50.62,24.07"/>
    <path class="cls-3" d="m283.1,22.51s-27.13-29.69-56,2.4"/>
  </g>
  <g id="eyes_color" data-name="eyes color">
    <path class="cls-4" d="m227.85,265.92s5.62-11.25,16.4-10.4,20.32,13.17,22.19,28.04c1.87,14.87-.21,36.23-5.39,46.69s-18.12,12.48-23.68,8.59-12.6-42.24-9.52-72.92Z"/>
    <path class="cls-2" d="m454.82,283.56s.91-8.37,11.97-8.24c11.39,2.58,13.44,10.31,15.85,21.21,2.41,10.9,2.66,25.51-2.29,33.47-4.95,7.97-11.01,10.55-16.83,7.93-3.84-5.73-9.69-24.29-8.7-54.37Z"/>
  </g>
</svg>