<?xml version="1.0" encoding="UTF-8"?>
<svg id="logo" xmlns="http://www.w3.org/2000/svg" xmlns:xlink="http://www.w3.org/1999/xlink" viewBox="0 0 387.84 395.52">
  <defs>
    <style>
      .cls-1 {
        stroke-width: .75px;
      }

      .cls-1, .cls-2, .cls-3 {
        fill: #fff;
        stroke: #fff;
        stroke-linecap: round;
        stroke-linejoin: round;
      }

      .cls-2 {
        filter: url(#outer-glow-1);
      }

      .cls-2, .cls-3 {
        stroke-width: 2px;
      }

      .cls-3 {
        filter: url(#outer-glow-2);
      }
    </style>
    <filter id="outer-glow-1" filterUnits="userSpaceOnUse">
      <feOffset dx="0" dy="0"/>
      <feGaussianBlur result="blur" stdDeviation="11"/>
      <feFlood flood-color="#fff" flood-opacity=".85"/>
      <feComposite in2="blur" operator="in"/>
      <feComposite in="SourceGraphic"/>
    </filter>
    <filter id="outer-glow-2" filterUnits="userSpaceOnUse">
      <feOffset dx="0" dy="0"/>
      <feGaussianBlur result="blur-2" stdDeviation="11"/>
      <feFlood flood-color="#fff" flood-opacity=".85"/>
      <feComposite in2="blur-2" operator="in"/>
      <feComposite in="SourceGraphic"/>
    </filter>
  </defs>
  <path class="cls-1" d="m169.59,285.84h-17.21v-130.2c0-1.84.61-7.23,1.84-16.16l-33.63,127.04h-3.68l-33.63-127.04c1.23,9.02,1.84,14.41,1.84,16.16v130.2h-17.21V80.23h16.95l33.37,133.74c.17.7.35,2.67.53,5.91,0-1.31.17-3.28.53-5.91l33.37-133.74h16.95v205.61Z"/>
  <path class="cls-1" d="m288.17,271.74c0,4.31-1.29,7.82-3.88,10.55-2.59,2.72-5.93,4.09-10.02,4.09h-51.47c-4.09,0-7.43-1.36-10.02-4.09-2.59-2.72-3.88-6.24-3.88-10.55V94.7c0-4.31,1.29-7.82,3.88-10.55,2.59-2.72,5.93-4.09,10.02-4.09h51.47c4.09,0,7.43,1.36,10.02,4.09,2.59,2.72,3.88,6.24,3.88,10.55v47.98h-17.53v-46.4h-44.33v173.88h44.33v-71.32h-20.91v-15.82h38.45v88.72Z"/>
  <path class="cls-2" d="m320.66,39.22c-8.78-3.67-16.49-5.15-16.49-5.15,0,0,11.41,3.75,16.52,12.87,2.99,5.33,3.95,11.54,4.57,17.61,3.38,33.13,1.47,67.47,1.56,100.79.07,29.72.03,59.45-.22,89.17-.13,15.22.53,30.82-.93,45.99-1.02,10.58-9.2,19.43-17.94,24.68-5.7,3.42-18.68,6.54-18.68,6.54l-26.88,2.34v27s46.42-1.73,53.84-2.81c9.3-1.36,18.76-4.6,25.38-11.56,10.42-10.97,11.05-27.69,11.08-42.82.07-39.46.67-78.92.86-118.38.1-19.95.09-39.89-.13-59.84-.24-21.17,3.5-44.19-6.94-63.73-6.16-11.54-15.17-18.35-25.59-22.71Z"/>
  <path class="cls-3" d="m39.56,328.5c-3.68-8.78-5.4-18.44-5.4-18.44,0,0,4,13.35,13.11,18.47,5.33,2.99,11.54,3.95,17.61,4.57,33.13,3.37,205.27.96,205.27.96l-8,27s-116.21.17-136.16-.05c-21.17-.24-44.19,3.5-63.73-6.93-11.54-6.16-18.36-15.17-22.72-25.59Z"/>
</svg>